<svg width="32" height="32" viewBox="0 0 32 32" fill="none" xmlns="http://www.w3.org/2000/svg">
<path d="M18.6465 21.6024H14.7508C14.7508 21.6024 14.0443 21.5079 13.8424 20.9408C13.6406 20.3737 13.9434 20.1279 14.2058 19.9389C14.4682 19.7498 19.3126 17.954 20.9677 18.0485C22.6229 18.143 27.6288 20.9408 27.6288 20.9408L25.6103 26.005C25.6103 26.005 22.9863 23.9256 22.2192 23.9256C21.4522 23.9256 15.8004 25.816 14.6902 25.6837C13.58 25.5514 5.28398 21.5249 4.7188 20.8633C4.3151 20.3907 4.30161 19.964 4.48217 19.464C4.66273 18.964 5.22343 18.5211 5.72805 18.5967C6.17212 18.6723 12.2882 20.6761 12.2882 20.6761" stroke="#01579B" stroke-width="1.4" stroke-miterlimit="10" stroke-linecap="round" stroke-linejoin="round"/>
<path d="M12.5 16.9941C15.5376 16.9941 18 14.5317 18 11.4941C18 8.45657 15.5376 5.99414 12.5 5.99414C9.46243 5.99414 7 8.45657 7 11.4941C7 14.5317 9.46243 16.9941 12.5 16.9941Z" stroke="#01579B" stroke-width="1.4" stroke-miterlimit="10" stroke-linecap="round" stroke-linejoin="round"/>
</svg>
