<svg width="32" height="32" viewBox="0 0 32 32" fill="none" xmlns="http://www.w3.org/2000/svg">
<path d="M7.5 6.75C7.08579 6.75 6.75 7.08579 6.75 7.5C6.75 7.91421 7.08579 8.25 7.5 8.25V6.75ZM8.09804 21.75C7.68383 21.75 7.34804 22.0858 7.34804 22.5C7.34804 22.9142 7.68383 23.25 8.09804 23.25V21.75ZM27 21.75C26.5858 21.75 26.25 22.0858 26.25 22.5C26.25 22.9142 26.5858 23.25 27 23.25V21.75ZM15 21.75C14.5858 21.75 14.25 22.0858 14.25 22.5C14.25 22.9142 14.5858 23.25 15 23.25V21.75ZM23.0196 10.5V9.75C22.653 9.75 22.3401 10.0151 22.2798 10.3767L23.0196 10.5ZM1 14.75C0.585786 14.75 0.25 15.0858 0.25 15.5C0.25 15.9142 0.585786 16.25 1 16.25V14.75ZM3.5 10.75C3.08579 10.75 2.75 11.0858 2.75 11.5C2.75 11.9142 3.08579 12.25 3.5 12.25V10.75ZM4.03922 18.75C3.625 18.75 3.28922 19.0858 3.28922 19.5C3.28922 19.9142 3.625 20.25 4.03922 20.25V18.75ZM30.6747 20.753L31.421 20.8277L30.6747 20.753ZM22.2079 15.3705L21.4681 15.2472L22.2079 15.3705ZM29.2753 16.5838L29.6272 15.9214L29.2753 16.5838ZM24.5006 10.4386L23.7506 10.4312L24.5006 10.4386ZM7.5 8.25H21.5907V6.75H7.5V8.25ZM23.1647 17.25H29.1176V15.75H23.1647V17.25ZM29.8444 16.3147L28.6874 11.7756L27.2338 12.1461L28.3909 16.6853L29.8444 16.3147ZM23.7506 10.4312L23.75 10.4926L25.25 10.5074L25.2506 10.4459L23.7506 10.4312ZM26.0807 9.75H24.5V11.25H26.0807V9.75ZM28.7658 17.1623L28.9235 17.2461L29.6272 15.9214L29.4695 15.8377L28.7658 17.1623ZM30.0594 19.3686L29.9284 20.6784L31.421 20.8277L31.552 19.5179L30.0594 19.3686ZM28.7443 21.75H27V23.25H28.7443V21.75ZM23 21.75H15V23.25H23V21.75ZM11 21.75H8.09804V23.25H11V21.75ZM24.5 9.75H23.0196V11.25H24.5V9.75ZM22.2798 10.3767L21.4681 15.2472L22.9476 15.4938L23.7594 10.6233L22.2798 10.3767ZM13 14.75H1V16.25H13V14.75ZM17 10.75H3.5V12.25H17V10.75ZM9 18.75H4.03922V20.25H9V18.75ZM25 25.25C26.5188 25.25 27.75 24.0188 27.75 22.5H26.25C26.25 23.1904 25.6904 23.75 25 23.75V25.25ZM22.25 22.5C22.25 24.0188 23.4812 25.25 25 25.25V23.75C24.3096 23.75 23.75 23.1904 23.75 22.5H22.25ZM11.75 22.5C11.75 21.8096 12.3096 21.25 13 21.25V19.75C11.4812 19.75 10.25 20.9812 10.25 22.5H11.75ZM25 19.75C23.4812 19.75 22.25 20.9812 22.25 22.5H23.75C23.75 21.8096 24.3096 21.25 25 21.25V19.75ZM25 21.25C25.6904 21.25 26.25 21.8096 26.25 22.5H27.75C27.75 20.9812 26.5188 19.75 25 19.75V21.25ZM28.6874 11.7756C28.3836 10.5839 27.3104 9.75 26.0807 9.75V11.25C26.6247 11.25 27.0995 11.6189 27.2338 12.1461L28.6874 11.7756ZM14.25 22.5C14.25 23.1904 13.6904 23.75 13 23.75V25.25C14.5188 25.25 15.75 24.0188 15.75 22.5H14.25ZM29.9284 20.6784C29.8676 21.2867 29.3557 21.75 28.7443 21.75V23.25C30.1263 23.25 31.2835 22.2028 31.421 20.8277L29.9284 20.6784ZM10.25 22.5C10.25 24.0188 11.4812 25.25 13 25.25V23.75C12.3096 23.75 11.75 23.1904 11.75 22.5H10.25ZM23.1647 15.75C23.0287 15.75 22.9253 15.6279 22.9476 15.4938L21.4681 15.2472C21.2933 16.2956 22.1018 17.25 23.1647 17.25V15.75ZM15.75 22.5C15.75 20.9812 14.5188 19.75 13 19.75V21.25C13.6904 21.25 14.25 21.8096 14.25 22.5H15.75ZM28.9235 17.2461C29.6978 17.6575 30.1466 18.4961 30.0594 19.3686L31.552 19.5179C31.6998 18.0395 30.9393 16.6185 29.6272 15.9214L28.9235 17.2461ZM21.5907 8.25C22.7919 8.25 23.7624 9.23003 23.7506 10.4312L25.2506 10.4459C25.2705 8.4106 23.6261 6.75 21.5907 6.75V8.25Z" fill="#01579B"/>
</svg>
