<svg width="32" height="32" viewBox="0 0 32 32" fill="none" xmlns="http://www.w3.org/2000/svg">
<path d="M20.9937 8.67578H10.8945C10.3422 8.67578 9.89453 9.1235 9.89453 9.67578V25.4621C9.89453 26.5667 10.79 27.4621 11.8945 27.4621H19.9937C21.0983 27.4621 21.9937 26.5667 21.9937 25.4621V9.67578C21.9937 9.1235 21.546 8.67578 20.9937 8.67578Z" stroke="#01579B" stroke-width="1.2"/>
<path d="M15.9025 19.2455C18.062 19.2455 19.8127 17.8627 19.8127 16.1569C19.8127 14.4511 18.062 13.0684 15.9025 13.0684C13.7429 13.0684 11.9922 14.4511 11.9922 16.1569C11.9922 17.8627 13.7429 19.2455 15.9025 19.2455Z" stroke="#01579B" stroke-width="1.3"/>
<path d="M15.9019 11.1417C16.4496 11.1417 16.8936 10.6977 16.8936 10.1499C16.8936 9.60222 16.4496 9.1582 15.9019 9.1582C15.3542 9.1582 14.9102 9.60222 14.9102 10.1499C14.9102 10.6977 15.3542 11.1417 15.9019 11.1417Z" stroke="#01579B" stroke-width="1.2"/>
<path d="M15.9878 22.7589C16.5355 22.7589 16.9796 22.3148 16.9796 21.7671C16.9796 21.2194 16.5355 20.7754 15.9878 20.7754C15.4401 20.7754 14.9961 21.2194 14.9961 21.7671C14.9961 22.3148 15.4401 22.7589 15.9878 22.7589Z" stroke="#01579B" stroke-width="1.2"/>
<path d="M14.4849 27.4625C14.4849 27.4058 14.4849 27.3775 14.4849 27.3208C14.4849 24.7989 12.4447 22.7305 9.89453 22.7305V25.4625C9.89453 26.567 10.79 27.4625 11.8945 27.4625H14.4849Z" stroke="#01579B" stroke-width="1.2"/>
<path d="M21.9946 22.7578C21.9663 22.7578 21.9663 22.7578 21.938 22.7578C19.4161 22.7578 17.3477 24.798 17.3477 27.3481C17.3477 27.4048 17.3477 27.4331 17.3477 27.4898H19.9663C21.0709 27.4898 21.9663 26.5944 21.9663 25.4898V22.7578H21.9946Z" stroke="#01579B" stroke-width="1.2"/>
<path d="M9.89603 8.67578H7.0625V12.161H9.89603V8.67578Z" stroke="#01579B" stroke-width="1.2"/>
<path d="M24.7427 8.67578H21.9941V12.161H24.7427V8.67578Z" stroke="#01579B" stroke-width="1.2"/>
<path d="M6.42578 4.42578C5.32121 4.42578 4.42578 5.32121 4.42578 6.42578V13.7599C4.42578 14.8645 5.32121 15.7599 6.42578 15.7599H8.8945C9.44678 15.7599 9.89449 15.3122 9.89449 14.7599V9.67608C9.89449 9.12379 10.3422 8.67608 10.8945 8.67608H20.9937C21.546 8.67608 21.9937 9.12379 21.9937 9.67608V14.7599C21.9937 15.3122 22.4414 15.7599 22.9937 15.7599H25.5757C26.6803 15.7599 27.5757 14.8645 27.5757 13.7599V6.42578C27.5757 5.32121 26.6803 4.42578 25.5757 4.42578H6.42578Z" stroke="#01579B" stroke-width="1.2"/>
</svg>
