<svg width="32" height="32" viewBox="0 0 32 32" fill="none" xmlns="http://www.w3.org/2000/svg">
<path d="M27 8V14H21" stroke="#01579B" stroke-width="2" stroke-linecap="round" stroke-linejoin="round"/>
<path d="M5 24V18H11" stroke="#01579B" stroke-width="2" stroke-linecap="round" stroke-linejoin="round"/>
<path d="M7.51 12.9996C8.01717 11.5664 8.87913 10.285 10.0155 9.27501C11.1518 8.26502 12.5255 7.55935 14.0083 7.22385C15.4911 6.88834 17.0348 6.93393 18.4952 7.35636C19.9556 7.77879 21.2853 8.5643 22.36 9.63959L27 13.9996M5 17.9996L9.64 22.3596C10.7147 23.4349 12.0444 24.2204 13.5048 24.6428C14.9652 25.0652 16.5089 25.1108 17.9917 24.7753C19.4745 24.4398 20.8482 23.7342 21.9845 22.7242C23.1209 21.7142 23.9828 20.4328 24.49 18.9996" stroke="#01579B" stroke-width="2" stroke-linecap="round" stroke-linejoin="round"/>
</svg>
