<svg width="24" height="24" viewBox="0 0 24 24" fill="none" xmlns="http://www.w3.org/2000/svg">
<path d="M18.5481 6.96637L18.5483 6.96662C18.8872 7.30206 19.1557 7.69994 19.3387 8.13732C19.5218 8.57469 19.6159 9.04322 19.6159 9.5162C19.6159 9.98918 19.5218 10.4577 19.3387 10.8951C19.1557 11.3325 18.8872 11.7303 18.5483 12.0658L18.5482 12.0659L17.6999 12.9059L12.0011 18.5487L6.30231 12.9059L5.45397 12.0659C4.76975 11.3884 4.38672 10.4711 4.38672 9.5162C4.38672 8.5613 4.76975 7.64399 5.45397 6.96649C6.13844 6.28874 7.06835 5.90667 8.0395 5.90667C9.01066 5.90667 9.94057 6.28874 10.625 6.96649L11.1527 6.43355L10.625 6.96649L11.4734 7.80649C11.7657 8.0959 12.2365 8.0959 12.5288 7.80649L13.3771 6.96649L13.3773 6.96637C13.716 6.63075 14.1187 6.36413 14.5624 6.18209C15.0061 6.00004 15.4819 5.90625 15.9627 5.90625C16.4434 5.90625 16.9192 6.00004 17.3629 6.18209C17.8066 6.36413 18.2093 6.63075 18.5481 6.96637Z" stroke="#060F42" stroke-width="1.5" stroke-linecap="round" stroke-linejoin="round"/>
</svg>
